<?xml version="1.0" encoding="utf-8"?>
<!-- Generator: Adobe Illustrator 26.0.3, SVG Export Plug-In . SVG Version: 6.00 Build 0)  -->
<svg version="1.1" id="Layer_1" xmlns="http://www.w3.org/2000/svg" xmlns:xlink="http://www.w3.org/1999/xlink" x="0px" y="0px"
	 viewBox="0 0 630.53 548.07" style="enable-background:new 0 0 630.53 548.07;" xml:space="preserve">
<style type="text/css">
	.st0{fill:#165BAA;}
	.st1{fill:#F765A3;}
	.st2{fill:url(#SVGID_1_);}
	.st3{fill:url(#SVGID_00000088811595249527627590000018002369000944986510_);}
	.st4{fill:url(#SVGID_00000163052079617169080010000015100915900606575788_);}
	.st5{fill:url(#SVGID_00000174602336418784976900000000460283874036968607_);}
	.st6{fill:url(#SVGID_00000075126366211545254850000007355639841957439110_);}
	.st7{fill:url(#SVGID_00000060019813225400471990000013601223200472011927_);}
	.st8{fill:url(#SVGID_00000119815686424359034110000008826135475620366476_);}
	.st9{fill:url(#SVGID_00000100350765427665988360000009913866293333997495_);}
	.st10{fill:url(#SVGID_00000109709463896530772310000012413576235230876592_);}
	.st11{fill:url(#SVGID_00000078013598891801277890000015559881827664295339_);}
</style>
<g>
	<g id="Symbol">
		<g id="EV">
			<polygon class="st0" points="398.5,217.23 398.5,233.23 390.57,233.23 342.98,329.23 333.65,329.23 285.16,233.23 214.5,233.23 
				214.5,217.23 294.5,217.23 338.5,305.23 382.5,217.23 			"/>
			<polygon class="st0" points="214.5,265.23 294.5,265.23 294.5,281.23 230.5,281.23 230.5,313.23 294.5,313.23 294.5,329.23 
				214.5,329.23 			"/>
		</g>
		<g id="i">
			<rect x="406.5" y="241.23" class="st0" width="16" height="88"/>
			<rect x="406.5" y="217.23" class="st1" width="16" height="16"/>
		</g>
	</g>
</g>
<g>
	<g>
		<linearGradient id="SVGID_1_" gradientUnits="userSpaceOnUse" x1="0" y1="274.0333" x2="630.53" y2="274.0333">
			<stop  offset="0" style="stop-color:#FF7300"/>
			<stop  offset="0.0486" style="stop-color:#FB6A08"/>
			<stop  offset="0.1294" style="stop-color:#F2501E"/>
			<stop  offset="0.2317" style="stop-color:#E32742"/>
			<stop  offset="0.3159" style="stop-color:#D40064"/>
			<stop  offset="0.7094" style="stop-color:#A900AA"/>
			<stop  offset="0.9944" style="stop-color:#5D3FFF"/>
		</linearGradient>
		<path class="st2" d="M468.28,9.01l153.01,265.03L468.28,539.06H162.25L9.24,274.03L162.25,9.01H468.28 M472.9,1.01H157.63
			L0,274.03l157.63,273.03H472.9l157.63-273.03L472.9,1.01L472.9,1.01z"/>
	</g>
	<g>
		
			<linearGradient id="SVGID_00000023986497963190189860000017593349539710887094_" gradientUnits="userSpaceOnUse" x1="28.0753" y1="274.0333" x2="602.4547" y2="274.0333">
			<stop  offset="0" style="stop-color:#FF7300"/>
			<stop  offset="0.0486" style="stop-color:#FB6A08"/>
			<stop  offset="0.1294" style="stop-color:#F2501E"/>
			<stop  offset="0.2317" style="stop-color:#E32742"/>
			<stop  offset="0.3159" style="stop-color:#D40064"/>
			<stop  offset="0.7094" style="stop-color:#A900AA"/>
			<stop  offset="0.9944" style="stop-color:#5D3FFF"/>
		</linearGradient>
		<path style="fill:url(#SVGID_00000023986497963190189860000017593349539710887094_);" d="M411.85,8.68L593.36,225l-96.58,265.35
			l-278.09,49.04L37.17,323.07l96.58-265.35L411.85,8.68 M415,0L127.82,50.64L28.08,324.67l187.45,223.39l287.19-50.64l99.74-274.03
			L415,0L415,0z"/>
	</g>
	<g>
		
			<linearGradient id="SVGID_00000011017972657571223450000012371471996148146351_" gradientUnits="userSpaceOnUse" x1="61.7843" y1="274.0332" x2="568.7458" y2="274.0332">
			<stop  offset="0" style="stop-color:#FF7300"/>
			<stop  offset="0.0486" style="stop-color:#FB6A08"/>
			<stop  offset="0.1294" style="stop-color:#F2501E"/>
			<stop  offset="0.2317" style="stop-color:#E32742"/>
			<stop  offset="0.3159" style="stop-color:#D40064"/>
			<stop  offset="0.7094" style="stop-color:#A900AA"/>
			<stop  offset="0.9944" style="stop-color:#5D3FFF"/>
		</linearGradient>
		<path style="fill:url(#SVGID_00000011017972657571223450000012371471996148146351_);" d="M360.5,17.48l199.56,167.45
			l-45.24,256.55l-244.8,89.1L70.46,363.13l45.24-256.55L360.5,17.48 M362.11,8.38l-253.48,92.26L61.78,366.29l206.64,173.39
			l253.48-92.26l46.84-265.65L362.11,8.38L362.11,8.38z"/>
	</g>
	<g>
		
			<linearGradient id="SVGID_00000103959247778485293020000009174965915690997177_" gradientUnits="userSpaceOnUse" x1="99.1766" y1="274.0332" x2="531.3535" y2="274.0332">
			<stop  offset="0" style="stop-color:#FF7300"/>
			<stop  offset="0.0486" style="stop-color:#FB6A08"/>
			<stop  offset="0.1294" style="stop-color:#F2501E"/>
			<stop  offset="0.2317" style="stop-color:#E32742"/>
			<stop  offset="0.3159" style="stop-color:#D40064"/>
			<stop  offset="0.7094" style="stop-color:#A900AA"/>
			<stop  offset="0.9944" style="stop-color:#5D3FFF"/>
		</linearGradient>
		<path style="fill:url(#SVGID_00000103959247778485293020000009174965915690997177_);" d="M315.27,33.75l208.09,120.14v240.28
			L315.27,514.31L107.18,394.17V153.89L315.27,33.75 M315.27,24.52L99.18,149.27v249.52l216.09,124.76l216.09-124.76V149.27
			L315.27,24.52L315.27,24.52z"/>
	</g>
	<g>
		
			<linearGradient id="SVGID_00000159467974157138061340000003148247311321083293_" gradientUnits="userSpaceOnUse" x1="98.3805" y1="274.0333" x2="532.1495" y2="274.0333">
			<stop  offset="0" style="stop-color:#FF7300"/>
			<stop  offset="0.0486" style="stop-color:#FB6A08"/>
			<stop  offset="0.1294" style="stop-color:#F2501E"/>
			<stop  offset="0.2317" style="stop-color:#E32742"/>
			<stop  offset="0.3159" style="stop-color:#D40064"/>
			<stop  offset="0.7094" style="stop-color:#A900AA"/>
			<stop  offset="0.9944" style="stop-color:#5D3FFF"/>
		</linearGradient>
		<path style="fill:url(#SVGID_00000159467974157138061340000003148247311321083293_);" d="M276.79,55.83l208.2,75.78l38.47,218.2
			L353.74,492.23l-208.2-75.78l-38.47-218.2L276.79,55.83 M275.19,46.74L98.38,195.09l40.08,227.3l216.88,78.94l176.81-148.36
			l-40.08-227.3L275.19,46.74L275.19,46.74z"/>
	</g>
	<g>
		
			<linearGradient id="SVGID_00000118369045120779225990000001348454160614274201_" gradientUnits="userSpaceOnUse" x1="105.0151" y1="274.0333" x2="525.515" y2="274.0333">
			<stop  offset="0" style="stop-color:#FF7300"/>
			<stop  offset="0.0486" style="stop-color:#FB6A08"/>
			<stop  offset="0.1294" style="stop-color:#F2501E"/>
			<stop  offset="0.2317" style="stop-color:#E32742"/>
			<stop  offset="0.3159" style="stop-color:#D40064"/>
			<stop  offset="0.7094" style="stop-color:#A900AA"/>
			<stop  offset="0.9944" style="stop-color:#5D3FFF"/>
		</linearGradient>
		<path style="fill:url(#SVGID_00000118369045120779225990000001348454160614274201_);" d="M245.41,82.1l201.15,35.47l69.86,191.94
			L385.12,465.97L183.97,430.5l-69.86-191.94L245.41,82.1 M242.25,73.42L105.02,236.96l73.02,200.62l210.25,37.07l137.23-163.55
			L452.5,110.49L242.25,73.42L242.25,73.42z"/>
	</g>
	<g>
		
			<linearGradient id="SVGID_00000140734954801782971750000004325843609367296658_" gradientUnits="userSpaceOnUse" x1="117.7836" y1="274.0333" x2="512.7464" y2="274.0333">
			<stop  offset="0" style="stop-color:#FF7300"/>
			<stop  offset="0.0486" style="stop-color:#FB6A08"/>
			<stop  offset="0.1294" style="stop-color:#F2501E"/>
			<stop  offset="0.2317" style="stop-color:#E32742"/>
			<stop  offset="0.3159" style="stop-color:#D40064"/>
			<stop  offset="0.7094" style="stop-color:#A900AA"/>
			<stop  offset="0.9944" style="stop-color:#5D3FFF"/>
		</linearGradient>
		<path style="fill:url(#SVGID_00000140734954801782971750000004325843609367296658_);" d="M409.39,111.01l94.12,163.02
			l-94.12,163.02H221.14l-94.12-163.02l94.12-163.02H409.39 M414.01,103.01H216.52l-98.74,171.02l98.74,171.02h197.48l98.74-171.02
			L414.01,103.01L414.01,103.01z"/>
	</g>
	<g>
		
			<linearGradient id="SVGID_00000062181925379469288480000015876684666000683920_" gradientUnits="userSpaceOnUse" x1="135.3699" y1="274.0333" x2="495.1601" y2="274.0333">
			<stop  offset="0" style="stop-color:#FF7300"/>
			<stop  offset="0.0486" style="stop-color:#FB6A08"/>
			<stop  offset="0.1294" style="stop-color:#F2501E"/>
			<stop  offset="0.2317" style="stop-color:#E32742"/>
			<stop  offset="0.3159" style="stop-color:#D40064"/>
			<stop  offset="0.7094" style="stop-color:#A900AA"/>
			<stop  offset="0.9944" style="stop-color:#5D3FFF"/>
		</linearGradient>
		<path style="fill:url(#SVGID_00000062181925379469288480000015876684666000683920_);" d="M374.58,111.06l111.48,132.86
			l-59.32,162.97l-170.8,30.12L144.47,304.15l59.32-162.97L374.58,111.06 M377.74,102.38l-179.9,31.72l-62.48,171.65l117.42,139.93
			l179.9-31.72l62.48-171.65L377.74,102.38L377.74,102.38z"/>
	</g>
	<g>
		
			<linearGradient id="SVGID_00000020357191926422197460000010966266660682611895_" gradientUnits="userSpaceOnUse" x1="156.4851" y1="274.0332" x2="474.0449" y2="274.0332">
			<stop  offset="0" style="stop-color:#FF7300"/>
			<stop  offset="0.0486" style="stop-color:#FB6A08"/>
			<stop  offset="0.1294" style="stop-color:#F2501E"/>
			<stop  offset="0.2317" style="stop-color:#E32742"/>
			<stop  offset="0.3159" style="stop-color:#D40064"/>
			<stop  offset="0.7094" style="stop-color:#A900AA"/>
			<stop  offset="0.9944" style="stop-color:#5D3FFF"/>
		</linearGradient>
		<path style="fill:url(#SVGID_00000020357191926422197460000010966266660682611895_);" d="M343,116.73L465.36,219.4l-27.74,157.31
			l-150.1,54.63L165.17,328.66l27.74-157.31L343,116.73 M344.61,107.63l-158.78,57.79l-29.34,166.4l129.44,108.61l158.78-57.79
			l29.34-166.4L344.61,107.63L344.61,107.63z"/>
	</g>
	<g>
		
			<linearGradient id="SVGID_00000130610686495371201840000005065935276048058499_" gradientUnits="userSpaceOnUse" x1="179.9076" y1="274.0333" x2="450.6224" y2="274.0333">
			<stop  offset="0" style="stop-color:#FF7300"/>
			<stop  offset="0.0486" style="stop-color:#FB6A08"/>
			<stop  offset="0.1294" style="stop-color:#F2501E"/>
			<stop  offset="0.2317" style="stop-color:#E32742"/>
			<stop  offset="0.3159" style="stop-color:#D40064"/>
			<stop  offset="0.7094" style="stop-color:#A900AA"/>
			<stop  offset="0.9944" style="stop-color:#5D3FFF"/>
		</linearGradient>
		<path style="fill:url(#SVGID_00000130610686495371201840000005065935276048058499_);" d="M315.27,126.97l127.36,73.53v147.06
			l-127.36,73.53l-127.36-73.53V200.5L315.27,126.97 M315.27,117.74l-135.36,78.15v156.3l135.36,78.15l135.36-78.15v-156.3
			L315.27,117.74L315.27,117.74z"/>
	</g>
</g>
</svg>
