<?xml version="1.0" encoding="utf-8"?>
<!-- Generator: Adobe Illustrator 26.0.3, SVG Export Plug-In . SVG Version: 6.00 Build 0)  -->
<svg version="1.1" xmlns="http://www.w3.org/2000/svg" xmlns:xlink="http://www.w3.org/1999/xlink" x="0px" y="0px"
	 viewBox="0 0 1157.1 1119.91" style="enable-background:new 0 0 1157.1 1119.91;" xml:space="preserve">
<style type="text/css">
	.st0{fill:#7497C1;}
	.st1{fill:#66AFA4;}
	.st2{fill:#4C76A8;}
	.st3{fill:#1F1E21;}
	.st4{fill:#42A068;}
</style>
<g id="bg">
</g>
<g id="design">
	<g>
		<g>
			<path class="st0" d="M757.02,982.21c-8.61-16.7-15.83-32.6-22.68-50.22c-1.4-3.61-4.69-7.02-8.55-7.93
				c-2.52-0.59-6.94-0.15-6.22,3.71c3.46,18.54,11.15,38.59,21.2,54.56c2.22,3.53,6.6,5.99,10.86,5.74
				C754.69,987.89,759.01,986.06,757.02,982.21z"/>
			<path class="st0" d="M782.73,977.92c-5.16-9.58-12.76-18.09-18.72-27.25c-8.96-13.76-16.49-28.42-23.44-43.29
				c-2.67-5.71-18.34-11.55-14.57-1.39c5.02,13.51,11.11,26.47,18.22,39.02c6.85,12.09,14.36,25.5,24.53,35.1
				C771.47,982.7,786.86,985.61,782.73,977.92z"/>
			<path class="st0" d="M803.89,974.5c-22.07-32.66-43.39-65.52-62.44-100.12c-1.94-3.52-6.03-7.2-10.34-7.11
				c-3.54,0.07-6.16,2.53-4.27,6.2c19.6,37.91,41.02,75.57,65.88,110.32c2.62,3.67,9.09,5.85,13.38,4.04
				c2.5-1.06,4.38-1.5,5.11-4.24C812.22,979.85,808.21,976.14,803.89,974.5z"/>
			<path class="st0" d="M834.32,976.46c-11.42-24.27-28.17-47.01-43.61-68.86c-15.35-21.72-31.73-42.7-48.94-62.98
				c-2.3-2.71-7.4-6.47-11.25-4.94c-3.68,1.46-3.61,4.96-1.25,7.85c2.67,3.28,5.32,6.58,7.95,9.89c-0.33,0.92-0.09,2.22,0.96,3.95
				c21.23,34.99,42.69,70.27,66.65,103.49c0.89,1.24,3.38,2.28,6.16,2.82c2.2,3.58,4.42,7.15,6.71,10.67
				C820.65,982.89,837.51,983.23,834.32,976.46z"/>
			<path class="st0" d="M859.92,971.23c-0.65-0.35-1.3-0.69-1.95-1.04c-0.39-0.21-0.94-0.39-1.6-0.53
				c-8.52-10.36-15.32-23.01-23.07-33.82c-8.36-11.67-16.95-23.17-25.76-34.51c-19.03-24.49-39.09-48.09-59.95-71.04
				c-5.03-5.54-19.96-5.12-12.28,3.72c21.21,24.44,41.4,49.8,60.63,75.82c9.58,12.96,18.92,26.09,28.01,39.39
				c5.31,7.77,10.44,15.64,15.6,23.51c3.33,5.07,5.5,7.54,11.72,8.68c3.32,0.61,9.38-0.48,10.76-4.13c0.12-0.32,0.24-0.64,0.36-0.96
				C863.24,974.13,861.79,972.23,859.92,971.23z"/>
			<path class="st0" d="M917.67,975.7c-7.79-13.5-17.87-26.13-27.93-38.58c3.57,3.16,7.34,6.04,11.35,8.5
				c3.28,2.01,8.06,2.61,11.62,0.96c2.38-1.1,5.51-4.14,2.6-6.75c-4.13-3.71-8.05-7.44-11.81-11.24c0.71-0.08,1.42-0.21,2.11-0.44
				c2.71-0.9,6.79-3.96,3.67-7.05c-36.22-35.82-54.59-82.62-77.79-126.98c-26.64-50.95-58.2-98.92-89.97-146.75
				c-3.75-5.65-20.11-6.52-14.43,2.43c31.35,49.37,63.01,98.84,89.73,150.92c1.8,3.51,3.57,7.07,5.33,10.64
				c-6.84-11.56-13.89-22.97-20.68-34.36c-19.78-33.17-38.36-67.95-60.63-99.5c-3.04-4.31-19.27-6.16-15.26,1.75
				c11.9,23.42,25.58,46.15,39.32,68.75c-9.91-10.93-19.23-22.32-26.84-35.15c-3-5.06-18.14-7.98-13.6,0.79
				c11.54,22.28,28.22,40.49,44.83,59.02c12.13,13.53,23.83,27.47,34.88,41.9c6.45,11.51,12.71,23.1,18.77,34.84
				c-11.84-15.82-23.63-31.68-35.36-47.58c-14.84-20.1-29.13-41.07-45.9-59.62c-3.14-3.47-16.53-6.21-12.21,2.17
				c10.83,20.97,26.45,39.98,40.29,59.02c14.57,20.06,29.22,40.06,43.91,60.03c14.57,19.81,29.26,39.52,44.01,59.19
				c7.37,9.82,14.75,19.63,22.16,29.43c2.19,2.9,4.34,5.98,6.52,9.06c-0.45-0.05-0.92-0.08-1.41-0.1c-2.66-3.08-5.16-7.5-6.87-9.73
				c-2.38-3.1-4.76-6.2-7.13-9.3c-5.55-7.23-11.1-14.46-16.65-21.7c-12.21-15.91-24.4-31.84-36.6-47.76
				c-11.04-14.41-22.13-28.79-33.21-43.17c-11.92-15.46-23.18-33.53-38.09-46.16c-4-3.39-12.78-3.83-10.48,3.48
				c3.06,9.73,11.42,18.37,17.68,26.5c-2.98-2.88-5.98-5.74-9.03-8.53c-4.62-4.24-17.9-4.92-11.19,4.02
				c10.96,14.59,23.93,27.83,35.93,41.56c12.77,14.61,25.3,29.43,37.6,44.44c24.61,30.05,47.38,61.35,70.57,92.48
				c3.95,5.31,20.31,1.06,16.23-6.1c-1.61-2.82-3.33-5.56-5.02-8.33c-0.09-0.14-0.2-0.28-0.31-0.41c1.52-0.8,2.8-1.93,3.66-3.42
				c2.9,3.79,5.95,7.4,9.33,10.51C904.64,982.41,921.83,982.9,917.67,975.7z M843.71,877.06c0.69,0.03,1.37,0.02,2.04-0.03
				c2.96,4.88,5.93,9.76,8.95,14.61C851.04,886.78,847.38,881.91,843.71,877.06z"/>
			<path class="st0" d="M929.13,905.46c-5.74-6.23-11.13-12.7-16.29-19.33c5.58,3.29,18.96-0.22,13.81-6.85
				c-74.7-96-116.91-212.43-192-308.12c-2.48-3.16-7.12-6.12-11.36-5.33c-3.47,0.65-5.68,3.51-3.2,6.81
				c27.78,36.99,50.91,76.93,73.09,117.47c-17.52-24.46-36.48-47.89-56.79-70.36c-6.15-6.81-17.65-3.25-9.83,5.57
				c39.24,44.24,71.94,93.77,99.77,145.84c26,48.65,50.03,98.87,87.59,139.97C918.39,916.03,935.28,912.14,929.13,905.46z"/>
			<path class="st0" d="M927.84,840.1c-14.07-16.22-26.43-33.61-37.87-51.6c5.36,7.29,10.92,14.43,16.75,21.36
				c4.27,5.07,20.88,0.52,14.89-6.48c-37.72-44.09-65.33-96.86-95.18-146.4c-27.04-44.87-54.12-89.72-81.27-134.52
				c-2.08-3.44-6.34-6.93-10.64-6.66c-3.51,0.22-6.08,2.81-3.99,6.38c13.19,22.62,26.39,45.24,39.61,67.85
				c-8.65-12.86-17.37-25.68-26.1-38.5c-4.31-6.33-18.98-6.92-12.53,2.77c33.93,50.96,67.13,102.32,96.32,156.17
				c25.36,46.79,49.66,94.67,84.75,135.12C916.9,850.61,933.81,846.99,927.84,840.1z"/>
			<path class="st0" d="M916.9,755.33c-5.72-9.44-11.47-18.85-17.24-28.27c0.53,0.52,1.05,1.07,1.6,1.57
				c3.63,3.36,19.97,3.55,14.81-4.05c-7.58-11.18-16.78-21.35-24.75-32.29c-7.8-10.71-15.28-21.65-22.55-32.73
				c-15.27-23.26-29.73-47.06-44.38-70.72c-29.93-48.33-59.94-96.61-90.48-144.55c-2.24-3.52-6.59-6-10.86-5.74
				c-2.8,0.17-7.64,2.09-5.37,5.86c14.77,24.56,29.68,49.05,44.65,73.5c-9.16-11.13-18.74-21.95-28.85-32.38
				c-4.86-5.01-18.13-3.11-10.96,4.62c36.86,39.71,65.94,85.78,94.07,131.88c29.54,48.42,58.42,97.26,88.27,145.49
				c3.2,5.16,14.83,3.95,17.03-1.63c0.44-1.21,0.94-2.39,1.48-3.55C924.98,758.71,921.27,756.16,916.9,755.33z"/>
			<path class="st0" d="M918.01,696.88c-65.72-89.8-118.16-188.37-183.97-278.14c-3.53-4.81-19.02-6.14-13.5,1.83
				c63.22,91.15,115.2,189.65,180.42,279.47C905.02,705.63,922.29,702.73,918.01,696.88z"/>
			<path class="st0" d="M926.97,670.29c-20.02-17.31-33.16-42.45-47.67-64.26c-15.45-23.24-30.9-46.47-46.35-69.71
				c-15.65-23.53-31.36-47.02-47.08-70.51c-15.94-23.83-31.36-48.4-49.08-70.95c-3.32-4.22-18.46-7.54-13.53,1.53
				c13.81,25.45,30.97,49.36,46.9,73.51c15.91,24.12,31.83,48.24,47.81,72.32c15.82,23.83,31.64,47.66,47.46,71.49
				c14.02,21.12,26.89,45.28,46.27,62.07C916.64,680.07,933.6,676.02,926.97,670.29z"/>
			<path class="st0" d="M924.78,628.48c-4.95-5.78-9.77-11.67-14.48-17.63c3.55-0.83,5.75-2.91,3.17-6.31
				c-66.51-87.57-120.21-184.25-179.85-276.55c-4.11-6.37-18.45-7.95-12.64,2.22c13.75,24.11,27.95,47.98,42.35,71.74
				c-9.04-10.65-18.49-20.99-28.52-30.88c-2.55-2.52-7.57-6.18-11.45-4.45c-3.54,1.58-3.48,5.16-0.91,7.9
				c73.37,77.87,117.33,177.69,186.79,258.63C913.53,638.15,930.65,635.33,924.78,628.48z"/>
			<path class="st0" d="M922.22,561.34c-10.73-19.07-25.08-36.6-37.05-54.96c-12.18-18.69-23.88-37.68-35.23-56.89
				c-23.75-40.19-45.27-81.66-65.91-123.52c-2.42-4.91-18.55-8.9-15.32-1.09c11.42,27.62,24.52,54.58,38.55,81.03
				c-19-27.58-38.63-54.67-59.54-80.93c-3.65-4.58-19.12-5.62-13.4,2.41c29.98,42.15,58.64,85.23,86.83,128.58
				c13.4,20.6,26.74,41.25,40.14,61.85c13.49,20.74,25.93,43.05,41.05,62.63c3.88,5.02,20.9,2.54,16.71-4.63
				c-1.72-2.94-3.47-5.86-5.25-8.76C919.14,567.24,924.59,565.56,922.22,561.34z"/>
			<path class="st0" d="M929.22,525.21c-0.9-1.09-2.7-1.78-4.79-2.1c-4.44-6.23-8.82-12.5-13.17-18.8
				c5.23-0.21,10.46-2.51,8.14-6.29c-15.86-25.9-33.03-50.8-47.94-77.32c-17.25-30.69-33.09-62.35-47.81-94.34
				c-2.77-6.02-18.58-10.37-14.63-0.43c5.68,14.28,11.72,28.36,18.11,42.27c-8.38-15.17-16.55-30.45-24.47-45.86
				c-2.57-5-18.84-8.14-15.34-0.59c34.75,75.2,78.02,146.48,126.29,213.74c3.59,5,14.23,4.63,17.08-1.06
				C932.55,530.73,931.78,528.29,929.22,525.21z"/>
			<path class="st0" d="M930.3,468.42c-6.88-12.49-17.24-23.61-25.41-35.34c-8.98-12.9-17.58-26.06-25.74-39.48
				c-16.1-26.47-29.9-54.09-43.89-81.7c-1.82-3.59-5.79-7.39-10.1-7.45c-3.79-0.05-5.93,2.29-4.47,6.06
				c11.57,29.79,26.25,58.26,42.44,85.79c7.66,13.01,15.69,25.81,24.13,38.33c8.41,12.49,16.99,27.76,28.22,37.85
				C919.22,475.82,934.8,476.58,930.3,468.42z"/>
			<path class="st0" d="M923.61,423.9c-5.91-5.72-10.88-12.61-15.38-19.89c5.66,2.86,16.91,0.86,14.42-5.31
				c-5.63-14-11.97-27.76-18.1-41.55c-2.96-6.67-6.01-13.29-9.03-19.93c-2.45-5.39-3.98-10.04-9.44-12.86
				c-3.55-1.83-8.24-2.53-11.53,0.1c-0.21,0.17-0.41,0.33-0.62,0.5c-1.82,1.45-0.8,4.22,0.37,5.65c0.14,0.17,0.28,0.35,0.42,0.52
				c0.42,0.52,1.14,1.04,2.04,1.53c2.58,4.62,4.15,11.02,5.97,15.42c2.51,6.07,5.06,12.13,7.63,18.17
				c3.58,8.42,7.02,16.94,10.69,25.34c-2.88-5.25-5.67-10.49-8.5-15.45c-10.62-18.57-20.47-37.56-31.3-56.01
				c-2.04-3.47-6.17-7.07-10.49-6.89c-3.86,0.16-5.71,2.6-4.13,6.29c9.27,21.73,20.03,42.62,31.45,63.3
				c5.31,9.62,10.75,19.18,16.33,28.65c4.18,7.1,8.16,14.09,15.17,18.69C913.7,432.86,930.14,430.22,923.61,423.9z"/>
		</g>
		<g>
			<path class="st1" d="M525.83,969.51c-6.81-14.28-16.82-27.4-25.3-40.75c-7.43-11.69-14.87-23.37-22.33-35.04
				c-2.16-3.38-6.59-6.72-10.85-6.3c-3.55,0.34-5.92,2.99-3.78,6.51c6.28,10.35,12.58,20.68,18.89,31.02
				c-5.44-1.78-12.21-0.78-10.28,5.07c5.58,16.92,13.26,36.05,25.36,49.4c3.48,3.84,19.44,4.5,14.97-3.4
				c-3.37-5.97-6.8-11.77-10.12-17.61c2.55,4.04,5.2,7.99,8.09,11.71C513.31,973.73,529.81,977.86,525.83,969.51z"/>
			<path class="st1" d="M545.98,970.26c-8.37-16.92-19.68-32.87-29.64-48.9c-11.06-17.81-21.51-36.04-32.93-53.62
				c-3.11-4.78-18.27-7.9-13.59,0.94c9.49,17.92,20.29,35.19,30.28,52.83c9.5,16.77,18.33,34.6,29.24,50.48
				C532.35,976.35,549.3,976.97,545.98,970.26z"/>
			<path class="st1" d="M494.32,981.33c-5.69-10.43-14.14-19.71-21.27-29.19c-2.33-3.09-6.63-6.65-10.84-5.79
				c-4.05,0.83-3.71,4.92-1.85,7.73c6.03,9.11,11.42,19.59,18.61,27.83c2.62,3.01,6.5,5.11,10.59,4.87
				C492.18,986.64,496.17,984.72,494.32,981.33z"/>
			<path class="st1" d="M568.17,974.52c-14.06-25.96-29.86-51.09-44.78-76.56c-15.35-26.2-30.7-52.41-46.71-78.2
				c-3.47-5.59-19.72-8.24-14.59,1.16c14.46,26.48,29.42,52.69,44.46,78.85c14.77,25.68,28.69,52.08,44.44,77.16
				C554.45,982.44,571.92,981.46,568.17,974.52z"/>
			<path class="st1" d="M593.88,965.87c-10.79-13.29-21.72-26.05-31.24-40.35c-9.67-14.53-18.49-29.61-27.34-44.64
				c-17.78-30.21-36.05-60.4-61.06-85.28c-2.54-2.53-7.58-6.18-11.45-4.45c-3.6,1.61-3.41,5.12-0.91,7.9
				c23.8,26.4,41.48,57.37,59.17,88.01c8.41,14.57,16.85,29.13,26.07,43.21c9.1,13.89,18.88,29.24,31.27,40.44
				C582.67,974.58,600,973.42,593.88,965.87z"/>
			<path class="st1" d="M658.54,924.13c-11.41-24.93-27.45-47.74-43-70.22c-16.5-23.86-32.64-47.91-47.8-72.65
				c-5.74-9.37-11.38-18.81-16.97-28.28c6.99,10.84,14.33,21.46,22,31.86c8.24,11.18,16.71,22.18,25.39,33.02
				c9.86,12.32,19.4,25.78,30.76,36.73c1.88,1.81,6.76,2.45,10.58,1.77c5.6,2.18,17.23,0.17,14.01-5.39
				c-6.62-11.43-14.08-22.49-21.75-33.42c5.95,2.82,18.41-0.98,14.56-6.35c-59.26-82.57-115.15-167.28-169.46-253.16
				c-3.14-4.97-18.44-7.6-13.59,0.94c22.99,40.48,47.39,80.28,72.72,119.49c-20.36-29.66-40.8-59.27-61.53-88.67
				c-4.23-6-19.13-8.07-12.71,1.81c28.94,44.53,58.36,88.74,87.86,132.9c13.96,20.89,27.93,41.77,41.92,62.64
				c-1.88-2.33-3.76-4.67-5.58-7.04c-17.13-22.3-33.06-45.52-46.32-70.35c-1.89-3.54-5.95-7.27-10.26-7.23
				c-3.18,0.03-5.67,2.04-4.72,5.15c-16.58-29.44-32.68-59.15-48.63-88.9c-2.84-5.31-18.02-8.45-13.62,0.2
				c27.7,54.47,55.02,109.1,86.25,161.67c22.12,37.23,47.04,72.56,70,109.18c-11.99-15.48-24-30.95-35.31-46.95
				c-19.97-28.24-39.35-56.82-57.86-86.04c-1.66-2.62-4.4-5.32-7.56-6.34c-14-28.48-27.27-57.31-39.93-86.42
				c-2.51-5.77-19.44-10.23-16.13-1.83c20.51,52.19,44.28,103,70.64,152.48c3.07,5.77,6.17,11.56,9.29,17.35
				c-20.65-33.56-40.32-67.74-59.22-102.32c-1.93-3.53-6.04-7.2-10.34-7.11c-3.6,0.07-6.09,2.52-4.27,6.2
				c9.86,19.87,20.18,39.49,30.9,58.89c-6.39-9.77-12.76-19.55-19.19-29.29c-3.56-5.38-20.12-8.41-14.62,0.68
				c45.07,74.48,91.94,147.85,138.88,221.16c3.18,4.96,12.87,3.7,16.26-0.36c0.87-1.04,1.44-2.09,1.82-3.14
				c0.08,0.08,0.15,0.16,0.23,0.23c3.79,3.58,19.13,3.86,14.77-4.21c-2.38-4.4-5.22-8.6-8.22-12.7c4.88-0.95,9.13-3.97,6.68-7.82
				c-18.09-28.47-36.37-56.66-53.89-85.37c16.2,23.34,32.93,46.63,51.41,67.96c3.27,3.77,16.5,1.66,16.67-2.95
				C655.05,931.7,660.63,928.7,658.54,924.13z"/>
			<path class="st1" d="M654.02,781.75c-6.59-12.3-17.77-22.9-26.46-33.88c-7.81-9.87-15.49-19.84-23.04-29.92
				c-15.21-20.3-29.98-40.94-44.32-61.86c-13.98-20.41-27.54-41.11-40.66-62.08c-13.01-20.79-24.48-43.1-38.76-63.03
				c-2.63-3.67-19-8.79-15.35-0.25c10.17,23.82,25.54,46.31,39.2,68.25c13.52,21.72,27.5,43.14,41.92,64.26
				c14.07,20.6,28.58,40.89,43.51,60.87c7.71,10.32,15.49,20.59,23.36,30.78c7.82,10.12,15.59,23.55,25.87,31.24
				C643.18,789.03,658.53,790.17,654.02,781.75z"/>
			<path class="st1" d="M653.73,743.67c-29.2-33.42-58.62-67.05-82.23-104.76c-3.54-5.66-6.92-11.4-10.21-17.18
				c1.57,2.47,3.13,4.95,4.73,7.4c19.96,30.69,41.51,61.46,66.16,88.6c4.23,4.66,21.46,2.91,15.65-4.32
				c-22.99-28.59-45.73-56.93-65.92-87.63c-20.1-30.56-38.14-62.39-54.93-94.88c-2.58-5-18.86-7.75-15.36-0.09
				c4.41,9.65,9.06,19.17,13.9,28.61c-6.92-10.64-14.46-20.9-23.16-30.48c-4.61-5.08-17.96-4.19-11.19,4.02
				c27.18,32.95,42.76,72.96,65.12,108.98c23.41,37.72,52.53,71.37,81.52,104.84c2.71,3.13,7.69,4.65,11.74,3.64
				C652.29,749.73,656.63,746.98,653.73,743.67z"/>
			<path class="st1" d="M655.37,679.59c-4.33-9.53-9.39-18.9-14.81-28.14c5.77,1.95,15.13,0.59,12.8-4.27
				c-4.64-9.69-9.57-19.25-14.7-28.72c5.83,2.91,15.76,2.99,12.75-3.98c-4.02-9.29-8.81-18.39-14.09-27.27
				c5.86,3.15,16.14,2.94,11.55-4.75c-2.01-3.36-4.18-6.64-6.43-9.87c2.23,1.37,4.87,2.19,7.29,1.78c2.44-0.41,5.78-3.89,2.91-6.39
				c-1.69-1.48-3.54-5.28-4.91-7.29c-1.1-1.62-2.17-3.25-3.21-4.91c-2.24-3.55-4.32-7.18-6.3-10.87c-1.58-2.95-4.41-5.65-7.72-6.73
				c-1.67-2.76-4.8-4.95-7.68-5.74c-0.67-0.18-1.4-0.27-2.11-0.25c-0.11-0.12-0.22-0.24-0.33-0.36c-2.66-2.92-7.36-5.67-11.45-4.45
				c-3.98,1.19-3.03,5.42-0.91,7.9c1.34,1.57,2.68,3.13,4.02,4.7c-3.23,0.98-3.5,4.64-1.69,7.4c0.75,1.14,1.48,2.3,2.22,3.46
				c-3.27-4.33-6.57-8.58-9.87-12.75c-3.34-4.23-11.99-5.07-12.8-1.04c-2.26-3.58-4.52-7.15-6.78-10.72
				c-4.08-6.46-18.77-7.68-12.64,2.22c19.36,31.26,36.47,63.7,53.57,96.18c-3.63-5.7-7.25-11.35-10.76-16.97
				c-15.65-25.04-31.74-49.81-48.19-74.33c-3.34-4.98-18.73-6.69-13.53,1.53c15.54,24.56,30.75,49.31,45.55,74.31
				c3.95,6.67,7.91,13.32,11.86,19.99c-3.43-5.16-6.83-10.34-10.15-15.57c-17.1-26.91-33.91-54.03-50.2-81.44
				c-3.39-5.7-19.75-8.45-14.61,0.84c15.38,27.78,31.19,55.25,47.9,82.25c16.53,26.71,32.85,54.37,51.83,79.43
				c3.84,5.07,20.63,4.08,15.74-3.97c-1.31-2.16-2.66-4.29-4-6.44C651.26,686.14,658.17,685.75,655.37,679.59z M625.9,550.09
				c0.27,0.05,0.57,0.08,0.88,0.1c0.65,1.28,1.3,2.57,1.99,3.85C627.79,552.73,626.85,551.41,625.9,550.09z"/>
		</g>
		<g>
			<path class="st2" d="M236.41,983.74c-6.08-9.94-10.75-18.49-13.94-29.84c-3.43-12.18-6.85-24.36-10.35-36.52
				c-1.87-6.48-19.16-9.38-17.24-1.93c3.72,14.4,7.35,28.85,11.5,43.13c3.04,10.46,6.97,21.79,16.22,28.27
				C225.32,988.75,241.16,991.5,236.41,983.74z"/>
			<path class="st2" d="M291.73,976.1c-4.71-15.21-12.32-29.89-18.82-44.41c-6.68-14.91-13.53-29.74-20.54-44.5
				c-13.74-28.96-28.19-57.58-43.02-86c-3.53-6.76-18.07-9.27-12.79,1.11c10.81,21.26,21.23,42.71,31.36,64.3
				c-5.25-10.85-10.73-21.6-16.4-32.24c-3.57-6.69-18.17-9.37-12.8,0.97c13.15,25.31,24.99,51.33,35.28,77.93
				c3.21,8.29,5.91,17.23,8.77,26.22c-1.19-2.98-2.38-5.96-3.6-8.9c-7.4-17.93-14.53-35.96-21.59-54.03
				c-2.41-6.18-18.17-11.75-14.51-1.87c7.23,19.56,14.67,39.05,22.24,58.49c6.75,17.34,12.26,37.18,24.76,51.4
				c2.95,3.36,13.03,4.68,14.41,1.09c5.23,4.09,18.52,5.63,13.28-2.87c-14.11-22.91-20.97-49.97-31.21-74.75
				c-2.01-4.85-4.08-9.67-6.19-14.48c5.28,11.6,10.48,23.25,15.6,34.92c6.76,15.44,12.37,31.92,20.44,46.7
				C278.77,979.52,294.42,984.8,291.73,976.1z"/>
			<path class="st2" d="M312.36,971.6c-8.25-18.26-18.63-35.72-27.59-53.67c-8.35-16.75-16.44-33.63-24.27-50.63
				c-16.81-36.56-32.59-73.55-47.07-111.1c-2.43-6.3-18.27-11.11-14.58-1.23c13.96,37.33,28.98,74.32,45.51,110.6
				c16.17,35.49,32.34,72.27,52.65,105.62C299.66,975.54,315.96,979.59,312.36,971.6z"/>
			<path class="st2" d="M344.74,978.53c-21.63-43-43.37-85.94-64.98-128.94c-21.09-41.96-41.64-84.28-57.48-128.56
				c-2.22-6.19-17.74-12.52-14.42-2.5c30.3,91.55,77.91,176.94,120.92,262.93C331.73,987.38,348.9,986.79,344.74,978.53z"/>
			<path class="st2" d="M369.07,981.81c-11.04-21.76-24.07-42.59-35.4-64.24c-11.97-22.88-23.45-46.04-34.29-69.47
				c-20.74-44.82-39.56-90.6-55.91-137.21c-2.23-6.36-17.86-11.61-14.55-1.55c15.82,48.08,33.78,95.28,54.52,141.46
				c20.27,45.15,42.02,91.5,69.03,133.09C355.49,988.54,372.39,988.35,369.07,981.81z"/>
			<path class="st2" d="M397,969.72c-4.56-10.66-12.52-20.38-18.63-30.25c-1.17-1.9-2.31-3.82-3.48-5.73
				c2.9,3.37,19.8,6.42,16.64-1.22c-7.43-18-18.85-34.85-27.7-52.25c-8.68-17.06-16.93-34.35-24.74-51.83
				c-15.61-34.96-29.34-70.75-41.41-107.08c-2.01-6.04-18.56-11.55-15.98-2.88c11.38,38.19,24.96,75.65,40.79,112.22
				c7.78,17.99,16.1,35.73,24.94,53.22c4.39,8.7,8.91,17.34,13.54,25.92c0.7,1.3,1.39,2.63,2.08,3.96
				c-0.92-1.59-1.87-3.17-2.78-4.77c-11.72-20.48-22.75-41.36-33.06-62.59c-20.58-42.36-38.54-86.03-53.72-130.6
				c-1.34-3.93-5.19-7.29-9.36-7.96c-2.85-0.46-7.81,0.37-6.51,4.56c14.45,46.49,32.01,91.89,53.04,135.81
				c10.35,21.62,21.44,42.89,33.23,63.77c5.9,10.44,11.97,20.77,18.22,31c6,9.83,11.6,21.7,19.87,29.76
				C385.56,976.31,400.69,978.35,397,969.72z"/>
			<path class="st2" d="M404.16,903.52c-21.03-25.55-34.59-55.64-46.45-86.27c-13.02-33.62-25.61-67.42-38.64-101.04
				c-1.5-3.88-5.4-7.11-9.62-7.65c-2.85-0.36-7.82,0.63-6.36,4.77c12.81,36.32,25.34,72.81,39.1,108.79
				c11.71,30.62,25.44,60.58,46.41,86.06C392.81,913.29,409.92,910.52,404.16,903.52z"/>
			<path class="st2" d="M392.89,763.26c-3.64-12.96-9.45-25.27-13.03-38.34c-1.13-4.12-4.58-7.5-8.73-8.65
				c-2.82-0.78-7.8-0.15-6.84,4.05c1.04,4.54,2.11,9.25,3.31,13.96c-2.01-5.03-4.04-10.03-6.07-14.97
				c-1.93-4.7-17.37-11.26-15.11-2.75c4.02,15.08,8.66,30.44,13.88,45.47c-6.87-17.17-13.79-34.32-20.79-51.45
				c-2.54-6.22-18.17-10.65-14.62-0.59c7.59,21.48,15.48,42.84,23.39,64.2c8,21.6,14.5,45.46,25.32,65.8
				c2.43,4.57,18.84,7.29,16.72-0.27c-4.76-16.98-11.96-33.6-18.84-50.06c4.61,3.88,16.86,5.67,15.17-0.51
				c-2.4-8.76-5.21-17.55-8.27-26.3C382.21,766.89,395.19,771.46,392.89,763.26z"/>
		</g>
		<g>
			<path class="st3" d="M389.46,973.53c-54.13,0-108.26,0-162.4,0c-7.65,0-15.29,0-22.94,0c1.61,0.98,3.23,1.96,4.84,2.93
				c0-78.72,0-157.43,0-236.15c0-11.08,0-22.16,0-33.24c-3.6,3.48-7.2,6.95-10.8,10.43c54.13,0,108.26,0,162.4,0
				c7.65,0,15.29,0,22.94,0c-1.61-0.98-3.23-1.96-4.84-2.93c0,78.72,0,157.43,0,236.15c0,11.08,0,22.16,0,33.24
				c0,7.22,15.64-0.56,15.64-7.5c0-78.72,0-157.43,0-236.15c0-11.08,0-22.16,0-33.24c0-2.42-3.12-2.93-4.84-2.93
				c-54.13,0-108.26,0-162.4,0c-7.65,0-15.29,0-22.94,0c-5.29,0-10.8,5.23-10.8,10.43c0,78.72,0,157.43,0,236.15
				c0,11.08,0,22.16,0,33.24c0,2.42,3.12,2.93,4.84,2.93c54.13,0,108.26,0,162.4,0c7.65,0,15.29,0,22.94,0
				C390.32,986.9,399.99,973.53,389.46,973.53z"/>
		</g>
		<g>
			<path class="st3" d="M653.65,973.53c-54.13,0-108.26,0-162.4,0c-7.65,0-15.29,0-22.94,0c1.61,0.98,3.23,1.96,4.84,2.93
				c0-50.75,0-101.5,0-152.24c0-80.53,0-161.06,0-241.6c0-18.59,0-37.18,0-55.76c-3.6,3.48-7.2,6.95-10.8,10.43
				c54.13,0,108.26,0,162.4,0c7.65,0,15.29,0,22.94,0c-1.61-0.98-3.23-1.96-4.84-2.93c0,50.75,0,101.5,0,152.24
				c0,80.53,0,161.06,0,241.6c0,18.59,0,37.18,0,55.76c0,7.22,15.64-0.56,15.64-7.5c0-50.75,0-101.5,0-152.24
				c0-80.53,0-161.06,0-241.6c0-18.59,0-37.18,0-55.76c0-2.42-3.12-2.93-4.84-2.93c-54.13,0-108.26,0-162.4,0
				c-7.65,0-15.29,0-22.94,0c-5.29,0-10.8,5.23-10.8,10.43c0,50.75,0,101.5,0,152.24c0,80.53,0,161.06,0,241.6
				c0,18.59,0,37.18,0,55.76c0,2.42,3.12,2.93,4.84,2.93c54.13,0,108.26,0,162.4,0c7.65,0,15.29,0,22.94,0
				C654.52,986.9,664.19,973.53,653.65,973.53z"/>
		</g>
		<g>
			<path class="st3" d="M917.85,973.53c-54.13,0-108.26,0-162.4,0c-7.65,0-15.29,0-22.94,0c1.61,0.98,3.23,1.96,4.84,2.93
				c0-74.37,0-148.75,0-223.12c0-117.71,0-235.41,0-353.12c0-27.05,0-54.1,0-81.16c-3.6,3.48-7.2,6.95-10.8,10.43
				c54.13,0,108.26,0,162.4,0c7.65,0,15.29,0,22.94,0c-1.61-0.98-3.23-1.96-4.84-2.93c0,74.37,0,148.75,0,223.12
				c0,117.71,0,235.41,0,353.12c0,27.05,0,54.1,0,81.16c0,7.22,15.64-0.56,15.64-7.5c0-74.37,0-148.75,0-223.12
				c0-117.71,0-235.41,0-353.12c0-27.05,0-54.1,0-81.16c0-2.42-3.12-2.93-4.84-2.93c-54.13,0-108.26,0-162.4,0
				c-7.65,0-15.29,0-22.94,0c-5.29,0-10.8,5.23-10.8,10.43c0,74.37,0,148.75,0,223.12c0,117.71,0,235.41,0,353.12
				c0,27.05,0,54.1,0,81.16c0,2.42,3.12,2.93,4.84,2.93c54.13,0,108.26,0,162.4,0c7.65,0,15.29,0,22.94,0
				C918.72,986.9,928.39,973.53,917.85,973.53z"/>
		</g>
		<path class="st4" d="M916.9,0.75c-0.21,0.11-0.42,0.21-0.63,0.32c-1.47,0.23-2.67,0.81-3.47,1.77
			c-25.57,13.05-51.75,24.79-78.03,36.34c-21.24,9.33-44.77,17.1-64.8,28.76c-12.7,7.4,0.77,15.66,10.55,9.5
			c10.72-6.75,24.93-10.81,36.57-15.8c11-4.72,22.02-9.39,33.03-14.1c12.99-5.56,26.03-11.27,39.17-16.7
			C843.94,81.2,798.99,131.9,754.37,182.9c-24.53,28.04-48.94,56.19-73.23,84.44c-11.61,13.51-23.2,27.05-34.76,40.6
			c-4.81,5.64-9.42,12.32-15.47,16.71c-10.36,7.51-19.21-3.46-25.68-10.79c-33.42-37.86-57.36-93.16-115.8-93.13
			c-63.64,0.03-111.91,57.47-152.44,99.01c-28.95,29.68-57.98,59.28-86.96,88.92c-29.57,30.25-58.63,61.49-90.02,89.88
			c-6.78,6.14,13.13,17.11,19.29,10.12c50.69-57.45,105.28-111.68,158.41-166.88c24.17-25.11,47.53-51.84,74.47-74.06
			c24.75-20.41,56.68-39.62,89.73-28.55c24.88,8.33,41.81,29.7,56.79,50.08c7.59,10.33,14.92,20.87,23.08,30.77
			c7.83,9.51,16.73,21.32,29.7,23.28c29.1,4.4,50.45-31.09,66.23-49.62c24.28-28.51,48.68-56.91,73.19-85.21
			c51.51-59.47,103.66-118.4,156.28-176.89c-6.99,40.38-14,80.75-21.65,121.02c-1.85,9.77,20.02,7.34,21.76-1.12
			c9.33-45.41,18.09-91.02,25.16-136.85C940.21,10.68,924.87-3.37,916.9,0.75z"/>
		<g>
			<path class="st3" d="M57.63,222.31c4.96-1.5,9.9-2.61,14.84-3.43c-1.93,52.55-3.31,105.12-4.62,157.69
				c-3.02,121.69-4.69,243.42-5.15,365.14c-0.47,124.17,1.96,248.28,2.09,372.43c0.01,7.81,18.05,7.61,17.75,0.01
				c-2.72-68.98-1.93-138.32-2.2-207.37c-0.9-229.94,3.61-459.7,9.2-689.56c4.16-0.1,8.35,0.01,12.57,0.3
				c1.44,1.12,3.71,1.2,6.08,0.56c0.36,0.04,0.71,0.06,1.07,0.1c6.53,0.77,8.18-2.32,6.84-5.47c0.93-1.44,1.32-3.01,0.75-4.56
				c-9.76-26.66-19.75-53.3-30.19-79.71c-2.34-5.93-16.03-6.38-17.48,0.38c-6.29,29.27-14.31,57.87-25.14,85.8
				C41.71,220.62,53.96,223.41,57.63,222.31z M89.82,205.42c0.15-5.95,0.29-11.9,0.44-17.84c2.25,6.05,4.51,12.09,6.79,18.13
				C94.64,205.54,92.23,205.44,89.82,205.42z M72.95,206.3c-2.46,0.29-4.91,0.64-7.35,1.06c2.98-8.27,5.74-16.62,8.32-25.03
				C73.58,190.33,73.26,198.31,72.95,206.3z"/>
			<path class="st3" d="M8.95,1080.95c78.29-2.38,156.59-2.53,234.84-3.31c137.38-1.36,274.72-1.95,412.04-1.74
				c68.7,0.1,137.38,0.4,206.06,0.89c34.34,0.25,68.68,0.54,103.02,0.88c29.74,0.3,59.69-0.19,89.39,1.33
				c0.03,1.76,0.06,3.53,0.13,5.29c0.07,2.02,1.57,3.23,3.64,3.81c-0.88,4.15-1.85,8.28-2.93,12.4c-1.69,6.45,8.8,8.91,13.18,8.35
				c22.61-2.85,44.47-9.14,65.01-18.63c0.79,0.16,1.59,0.31,2.38,0.48c3.25,0.69,16.43-3.8,12.3-7.94c2.32-1.29,4.62-2.6,6.9-3.97
				c5.81-3.5-1.35-8.6-4.81-9.99c-26.49-10.61-52.49-23.24-76.57-38.59c-3.76-2.4-14.3-4.42-15.46,2.13
				c-2.01,11.35-3.22,22.72-3.63,34.16c-71.74,1.05-143.48-1.27-215.15-1.74c-137.75-0.91-275.53-1.02-413.34-0.33
				c-139.7,0.69-279.54,4.17-419.22,4.32C-4.69,1068.77,0.04,1081.22,8.95,1080.95z M1074.12,1044.3c6.14,3.41,12.36,6.69,18.6,9.89
				c-1.93,0.14-3.86,0.64-5.77,1.59c-0.42,0.21-0.81,0.44-1.19,0.68c-2.97-1.84-7.58-2.42-10.87-1.36c-0.62-0.31-1.26-0.6-1.92-0.83
				C1073.28,1050.95,1073.66,1047.62,1074.12,1044.3z M1133.89,1073.58c-0.57,0.31-1.15,0.59-1.73,0.9
				c-0.49-0.21-0.98-0.43-1.47-0.63c-2.74-1.1-6.77,0.49-9.71,2.91c-0.2-0.03-0.39-0.07-0.59-0.1c-1.09-2.38-5.33-4.04-8.42-4.6
				c3.49-1.54,5.53-4.28,2.73-7.01c-0.05-0.05-0.11-0.1-0.16-0.15C1120.95,1067.89,1127.38,1070.81,1133.89,1073.58z
				 M1074.55,1095.18c1.11-5.24,2.04-10.5,2.85-15.79c1.76,2.08,3.85,3.96,6.27,5.61c2.32,1.58,6.04,2.76,9.34,2.46
				c2.57,0.51,5.21,0.71,7.85,0.6C1092.27,1090.97,1083.5,1093.38,1074.55,1095.18z"/>
		</g>
	</g>
</g>
</svg>
