<?xml version="1.0" encoding="utf-8"?>
<!-- Generator: Adobe Illustrator 26.0.3, SVG Export Plug-In . SVG Version: 6.00 Build 0)  -->
<svg version="1.1" id="Layer_1" xmlns="http://www.w3.org/2000/svg" xmlns:xlink="http://www.w3.org/1999/xlink" x="0px" y="0px"
	 viewBox="0 0 903.81 207.4" style="enable-background:new 0 0 903.81 207.4;" xml:space="preserve">
<style type="text/css">
	.st0{fill:#50FA7B;}
	.st1{fill:#FFFFFF;stroke:#FFFFFF;stroke-miterlimit:10;}
	.st2{fill:#FFFFFF;stroke:#FFFFFF;stroke-width:18;stroke-linecap:round;stroke-miterlimit:10;}
	.st3{fill:#8BE9FD;}
	.st4{fill:#8BE9FD;stroke:#8BE9FD;stroke-width:16;stroke-linecap:round;stroke-miterlimit:10;}
	.st5{fill:#8BE9FD;stroke:#8BE9FD;stroke-miterlimit:10;}
	.st6{display:none;fill:#8BE9FD;stroke:#8BE9FD;stroke-width:8;stroke-miterlimit:10;}
</style>
<g>
	<g>
		<g>
			<path class="st0" d="M730.91,207.53v-26.92c-9.77-0.17-19.28-0.96-28.51-2.39c-9.24-1.42-16.7-3.4-22.38-5.91v-21.38
				c6.04,2.69,13.76,5.03,23.18,7.04c9.41,2.01,18.65,3.11,27.71,3.27v-50.82c-17.58-4.53-30.47-10.23-38.63-17.11
				c-8.17-6.88-12.26-16.27-12.26-28.18c0-12.41,4.57-22.14,13.72-29.18c9.15-7.04,21.54-10.98,37.17-11.82V2h17.05v21.89
				c9.41,0.17,17.98,1.13,25.71,2.89c7.73,1.76,14.79,3.9,21.18,6.41l-7.19,18.62c-5.69-2.18-11.95-4.06-18.78-5.66
				c-6.84-1.59-13.81-2.64-20.92-3.14v50.56c11.72,3.19,21.49,6.58,29.31,10.19c7.81,3.61,13.72,8.05,17.72,13.33
				c4,5.28,5.99,12.12,5.99,20.5c0,11.74-4.62,21.26-13.85,28.55c-9.24,7.3-22.29,11.78-39.17,13.46v27.92H730.91z M730.91,88.04
				V43.51c-9.59,0.67-16.65,2.77-21.18,6.29c-4.53,3.52-6.79,8.05-6.79,13.58c0,6.71,2,11.87,5.99,15.47
				C712.92,82.46,720.25,85.52,730.91,88.04z M747.96,159.98c10.48-1.01,18.12-3.31,22.91-6.92c4.8-3.6,7.19-8.26,7.19-13.96
				c0-6.37-2.13-11.19-6.39-14.47c-4.26-3.27-12.17-6.25-23.71-8.93V159.98z"/>
		</g>
		<g>
			<path class="st0" d="M878.01,207.53V63.89c0-8.25,0.1-14.87,0.3-19.86c0.2-4.99,0.5-10.17,0.9-15.54c-3.2,2.88-6.1,5.42-8.7,7.63
				c-2.6,2.21-5.9,4.94-9.9,8.2l-22.8,17.85l-13.8-16.98L881.91,2h21.9v205.53H878.01z"/>
		</g>
	</g>
	<g>
		<g>
			<path class="st1" d="M415.18,100.29V77.84c9.6-10.17,21.5-15.26,35.7-15.26c11.8,0,24.4,2.78,37.8,8.35
				c6.6,2.69,12.65,4.8,18.15,6.33c5.5,1.54,10.45,2.3,14.85,2.3c5.2,0,10.95-1.48,17.25-4.46c6.3-2.97,12.05-7.15,17.25-12.52
				v22.17c-9.8,10.36-21.8,15.54-36,15.54c-12.4,0-25.1-2.88-38.1-8.64c-12.8-5.56-23.8-8.35-33-8.35c-5.2,0-10.8,1.49-16.8,4.46
				C426.28,90.75,420.58,94.92,415.18,100.29z"/>
		</g>
		<g>
			<path class="st1" d="M418.33,146.69v-22.45c9.6-10.17,21.5-15.26,35.7-15.26c11.8,0,24.4,2.78,37.8,8.35
				c6.6,2.69,12.65,4.8,18.15,6.33c5.5,1.54,10.45,2.3,14.85,2.3c5.2,0,10.95-1.48,17.25-4.46c6.3-2.97,12.05-7.15,17.25-12.52
				v22.17c-9.8,10.36-21.8,15.54-36,15.54c-12.4,0-25.1-2.88-38.1-8.64c-12.8-5.56-23.8-8.35-33-8.35c-5.2,0-10.8,1.49-16.8,4.46
				C429.43,137.14,423.73,141.32,418.33,146.69z"/>
		</g>
		<line class="st2" x1="540.86" y1="36.54" x2="434" y2="178.89"/>
	</g>
	<g>
		<g>
			<path class="st3" d="M262.59,207.4V63.76c0-8.25,0.1-14.87,0.3-19.86c0.2-4.99,0.5-10.17,0.9-15.54c-3.2,2.88-6.1,5.42-8.7,7.63
				c-2.6,2.21-5.9,4.94-9.9,8.2l-22.8,17.85l-13.8-16.98l57.9-43.18h21.9V207.4H262.59z"/>
		</g>
		<g id="logo">
			<g id="symbol">
				<polyline class="st4" points="61.16,115.97 29.26,115.97 8,115.97 				"/>
				<polyline class="st4" points="132.03,115.97 163.93,115.97 185.19,115.97 				"/>
				<polyline class="st4" points="8,93.3 31.62,93.3 61.16,93.3 				"/>
				<polyline class="st4" points="185.19,93.3 163.93,93.3 132.03,93.3 				"/>
				<g>
					<polygon class="st5" points="84.78,104.64 37.53,149.97 2.09,149.97 49.34,104.64 2.09,59.3 37.53,59.3 					"/>
				</g>
				<g>
					<polygon class="st5" points="191.09,149.97 155.66,149.97 108.41,104.64 155.66,59.3 191.09,59.3 143.84,104.64 					"/>
				</g>
				<g>
					<polygon class="st5" points="143.84,161.31 143.84,195.31 96.59,149.97 49.34,195.31 49.34,183.98 49.34,161.31 96.59,115.97 
											"/>
				</g>
				<g>
					<polygon class="st5" points="49.34,47.96 49.34,13.96 96.59,59.3 143.84,13.96 143.84,25.3 143.84,47.96 96.59,93.3 					"/>
				</g>
			</g>
			<g id="border">
				<ellipse class="st6" cx="402.19" cy="101.41" rx="180" ry="172.71"/>
				<ellipse class="st6" cx="402.19" cy="101.41" rx="198" ry="189.99"/>
				<ellipse class="st6" cx="402.19" cy="101.41" rx="216" ry="207.26"/>
				<ellipse class="st6" cx="402.19" cy="101.41" rx="234" ry="224.53"/>
				<ellipse class="st6" cx="402.19" cy="101.41" rx="252" ry="241.8"/>
				<ellipse class="st6" cx="402.19" cy="101.41" rx="270" ry="259.07"/>
			</g>
		</g>
	</g>
</g>
</svg>
